<?xml version="1.0" encoding="UTF-8" standalone="no"?>
<svg
   xmlns:dc="http://purl.org/dc/elements/1.1/"
   xmlns:cc="http://creativecommons.org/ns#"
   xmlns:rdf="http://www.w3.org/1999/02/22-rdf-syntax-ns#"
   xmlns:svg="http://www.w3.org/2000/svg"
   xmlns="http://www.w3.org/2000/svg"
   version="1.1"
   id="svg2"
   viewBox="0 0 479.50473 327.6275"
   height="92.46376mm"
   width="135.32689mm">
  <defs
     id="defs4" />
  <metadata
     id="metadata7">
    <rdf:RDF>
      <cc:Work
         rdf:about="">
        <dc:format>image/svg+xml</dc:format>
        <dc:type
           rdf:resource="http://purl.org/dc/dcmitype/StillImage" />
        <dc:title></dc:title>
      </cc:Work>
    </rdf:RDF>
  </metadata>
  <g
     transform="translate(-151.65522,-601.37432)"
     id="layer1">
    <g
       id="g11265">
      <text
         id="text9171"
         style="font-style:italic;font-variant:normal;font-weight:normal;font-stretch:normal;font-size:11.25px;font-family:'Times New Roman';-inkscape-font-specification:TimesNewRomanPS-ItalicMT;writing-mode:lr-tb;fill:#231f20;fill-opacity:1;fill-rule:nonzero;stroke:none"
         x="159.07272"
         y="616.38208">
        <tspan
           id="tspan9173"
           y="616.38208"
           x="159.07272 164.29723 169.92223 175.54723 178.67473 183.66972 186.48222 192.10722 194.91972 200.54472 203.35722 210.86098 215.85599 220.85098 223.66348 226.79099 231.78598 237.41098 240.53848 246.16348 250.11111 255.10611 259.48236 262.29486 267.91986 271.04736 273.85986 281.98236 285.10986 290.73486 293.86237 297.60861 303.23361 308.85861 314.48361 317.61111 320.73862 325.73361">Table 3.1 Key features of mini-publics</tspan>
      </text>
      <g
         transform="matrix(1.25,0,0,-1.25,159.07273,637.00711)"
         id="g9175">
        <path
           id="path9177"
           style="fill:none;stroke:#231f20;stroke-width:1;stroke-linecap:butt;stroke-linejoin:miter;stroke-miterlimit:10;stroke-dasharray:none;stroke-opacity:1"
           d="M 0,0 47.696,0" />
      </g>
      <g
         transform="matrix(1.25,0,0,-1.25,218.69298,637.00711)"
         id="g9179">
        <path
           id="path9181"
           style="fill:none;stroke:#231f20;stroke-width:1;stroke-linecap:butt;stroke-linejoin:miter;stroke-miterlimit:10;stroke-dasharray:none;stroke-opacity:1"
           d="M 0,0 61.931,0" />
      </g>
      <g
         transform="matrix(1.25,0,0,-1.25,296.10673,637.00711)"
         id="g9183">
        <path
           id="path9185"
           style="fill:none;stroke:#231f20;stroke-width:1;stroke-linecap:butt;stroke-linejoin:miter;stroke-miterlimit:10;stroke-dasharray:none;stroke-opacity:1"
           d="M 0,0 64.843,0" />
      </g>
      <g
         transform="matrix(1.25,0,0,-1.25,377.16048,637.00711)"
         id="g9187">
        <path
           id="path9189"
           style="fill:none;stroke:#231f20;stroke-width:1;stroke-linecap:butt;stroke-linejoin:miter;stroke-miterlimit:10;stroke-dasharray:none;stroke-opacity:1"
           d="M 0,0 61.528,0" />
      </g>
      <g
         transform="matrix(1.25,0,0,-1.25,454.07098,637.00711)"
         id="g9191">
        <path
           id="path9193"
           style="fill:none;stroke:#231f20;stroke-width:1;stroke-linecap:butt;stroke-linejoin:miter;stroke-miterlimit:10;stroke-dasharray:none;stroke-opacity:1"
           d="M 0,0 67.844,0" />
      </g>
      <g
         transform="matrix(1.25,0,0,-1.25,538.87585,637.00711)"
         id="g9195">
        <path
           id="path9197"
           style="fill:none;stroke:#231f20;stroke-width:1;stroke-linecap:butt;stroke-linejoin:miter;stroke-miterlimit:10;stroke-dasharray:none;stroke-opacity:1"
           d="M 0,0 68.158,0" />
      </g>
      <g
         transform="matrix(1.25,0,0,-1.25,159.07273,668.88211)"
         id="g9199">
        <path
           id="path9201"
           style="fill:none;stroke:#231f20;stroke-width:0.5;stroke-linecap:butt;stroke-linejoin:miter;stroke-miterlimit:10;stroke-dasharray:none;stroke-opacity:1"
           d="M 0,0 47.696,0" />
      </g>
      <g
         transform="matrix(1.25,0,0,-1.25,218.69298,668.88211)"
         id="g9203">
        <path
           id="path9205"
           style="fill:none;stroke:#231f20;stroke-width:0.5;stroke-linecap:butt;stroke-linejoin:miter;stroke-miterlimit:10;stroke-dasharray:none;stroke-opacity:1"
           d="M 0,0 61.931,0" />
      </g>
      <g
         transform="matrix(1.25,0,0,-1.25,296.10673,668.88211)"
         id="g9207">
        <path
           id="path9209"
           style="fill:none;stroke:#231f20;stroke-width:0.5;stroke-linecap:butt;stroke-linejoin:miter;stroke-miterlimit:10;stroke-dasharray:none;stroke-opacity:1"
           d="M 0,0 64.843,0" />
      </g>
      <g
         transform="matrix(1.25,0,0,-1.25,377.16048,668.88211)"
         id="g9211">
        <path
           id="path9213"
           style="fill:none;stroke:#231f20;stroke-width:0.5;stroke-linecap:butt;stroke-linejoin:miter;stroke-miterlimit:10;stroke-dasharray:none;stroke-opacity:1"
           d="M 0,0 61.528,0" />
      </g>
      <g
         transform="matrix(1.25,0,0,-1.25,454.07098,668.88211)"
         id="g9215">
        <path
           id="path9217"
           style="fill:none;stroke:#231f20;stroke-width:0.5;stroke-linecap:butt;stroke-linejoin:miter;stroke-miterlimit:10;stroke-dasharray:none;stroke-opacity:1"
           d="M 0,0 67.844,0" />
      </g>
      <g
         transform="matrix(1.25,0,0,-1.25,538.87585,668.88211)"
         id="g9219">
        <path
           id="path9221"
           style="fill:none;stroke:#231f20;stroke-width:0.5;stroke-linecap:butt;stroke-linejoin:miter;stroke-miterlimit:10;stroke-dasharray:none;stroke-opacity:1"
           d="M 0,0 68.158,0" />
      </g>
      <g
         transform="matrix(1.25,0,0,-1.25,159.07273,887.94461)"
         id="g9223">
        <path
           id="path9225"
           style="fill:none;stroke:#231f20;stroke-width:1;stroke-linecap:butt;stroke-linejoin:miter;stroke-miterlimit:10;stroke-dasharray:none;stroke-opacity:1"
           d="M 0,0 47.696,0" />
      </g>
      <g
         transform="matrix(1.25,0,0,-1.25,218.69298,887.94461)"
         id="g9227">
        <path
           id="path9229"
           style="fill:none;stroke:#231f20;stroke-width:1;stroke-linecap:butt;stroke-linejoin:miter;stroke-miterlimit:10;stroke-dasharray:none;stroke-opacity:1"
           d="M 0,0 61.931,0" />
      </g>
      <g
         transform="matrix(1.25,0,0,-1.25,296.10673,887.94461)"
         id="g9231">
        <path
           id="path9233"
           style="fill:none;stroke:#231f20;stroke-width:1;stroke-linecap:butt;stroke-linejoin:miter;stroke-miterlimit:10;stroke-dasharray:none;stroke-opacity:1"
           d="M 0,0 64.843,0" />
      </g>
      <g
         transform="matrix(1.25,0,0,-1.25,377.16048,887.94461)"
         id="g9235">
        <path
           id="path9237"
           style="fill:none;stroke:#231f20;stroke-width:1;stroke-linecap:butt;stroke-linejoin:miter;stroke-miterlimit:10;stroke-dasharray:none;stroke-opacity:1"
           d="M 0,0 61.528,0" />
      </g>
      <g
         transform="matrix(1.25,0,0,-1.25,454.07098,887.94461)"
         id="g9239">
        <path
           id="path9241"
           style="fill:none;stroke:#231f20;stroke-width:1;stroke-linecap:butt;stroke-linejoin:miter;stroke-miterlimit:10;stroke-dasharray:none;stroke-opacity:1"
           d="M 0,0 67.844,0" />
      </g>
      <g
         transform="matrix(1.25,0,0,-1.25,538.87585,887.94461)"
         id="g9243">
        <path
           id="path9245"
           style="fill:none;stroke:#231f20;stroke-width:1;stroke-linecap:butt;stroke-linejoin:miter;stroke-miterlimit:10;stroke-dasharray:none;stroke-opacity:1"
           d="M 0,0 68.158,0" />
      </g>
      <text
         id="text9247"
         style="font-variant:normal;font-weight:normal;font-stretch:normal;font-size:11.25px;font-family:'Times New Roman';-inkscape-font-specification:TimesNewRomanPSMT;writing-mode:lr-tb;fill:#231f20;fill-opacity:1;fill-rule:nonzero;stroke:none"
         x="218.69298"
         y="662.63208">
        <tspan
           id="tspan9249"
           y="662.63208"
           x="218.69298 226.19673 229.32423 232.45174 235.57922 240.57423 245.56923 251.19423 255.57048 258.47409 261.28662 264.41409 270.03909 273.78534 276.91284 281.90787 296.10422 302.35922 305.48672 310.48172 316.10672 321.73172 324.85922 330.48422 336.10922 338.92172 343.91672 348.91174 352.03925 355.16672">Citizens’ juriesPlanning cells</tspan>
        <tspan
           id="tspan9251"
           y="650.13336"
           x="377.16049 384.66422 390.28922 395.91422 400.29047 405.28549 410.91049 415.28671 420.91171 425.28799">Consensus</tspan>
        <tspan
           id="tspan9253"
           y="662.63208"
           x="377.16049 382.15549 387.78049 393.40549 397.15173 402.14673 405.89297 410.88797 416.51297 421.50797 426.50299 454.06549 462.18799 467.81299 473.43799">conferencesDop</tspan>
        <tspan
           id="tspan9255"
           y="650.13336"
           x="538.86798 546.37177 549.49921 552.62671 555.75421 560.74921 565.7442 571.3692 575.74548 578.64911">Citizens’</tspan>
        <tspan
           id="tspan9257"
           y="662.63208"
           x="538.86798 543.86298 548.2392 552.61548 557.61047 566.36298 571.98798 575.11548 578.24298 583.23798">assemblies</tspan>
        <tspan
           id="tspan9259"
           y="681.68964"
           x="159.06798 167.19048 172.81548 175.62798 178.44048 184.06548 187.81174">No. of</tspan>
        <tspan
           id="tspan9261"
           y="694.18835"
           x="159.06798 164.06299 167.19048 170.31798 173.44548 178.44048 183.43549 189.06049">citizens</tspan>
        <tspan
           id="tspan9263"
           y="681.68964"
           x="218.69298 224.31798 229.94298 235.56798 241.19298 296.10422 301.72922 307.35422 312.97922 318.60422 324.22922 329.85422 377.16049 382.78549 388.41049 394.03549 399.66049 454.06549 459.69049 465.31549 470.94049 476.56549 482.19049 487.81549 538.86798 544.49298 550.11798 555.74298 561.36798 566.99298 572.61798">12–26100–50010–25100–500100–160</tspan>
        <tspan
           id="tspan9265"
           y="712.94214"
           x="159.06798 167.19048 172.81548 175.62798 178.44048 184.06548 187.81174">No. of</tspan>
        <tspan
           id="tspan9267"
           y="725.44086"
           x="159.06798 167.82048 172.81548 177.81049 180.93797 184.06548 189.69048 195.31548">meetings</tspan>
        <tspan
           id="tspan9269"
           y="712.94214"
           x="218.69298 224.31798 229.94298 235.56798 238.38048 244.00548 249.00047 254.62547 296.10422 301.72922 307.35422 312.97922 315.79172 321.41672 326.41174 332.03674 377.16049 382.78549 388.41049 394.03549 396.84799 402.47299 407.46799 413.09299 454.06549 459.69049 465.31549 470.94049 473.75299 479.37799 484.37299 489.99799 538.86798 544.49298 550.11798 555.74298 561.36798 566.99298 569.80548 575.43048 580.42548 586.05048">4–5 days4–5 days7–8 days2–3 days20–30 days</tspan>
        <tspan
           id="tspan9271"
           y="744.19458"
           x="159.06798 165.32298 170.31798 173.44548 178.44048 183.43549 186.56297 189.69048 195.31548 200.94048">Selection</tspan>
        <tspan
           id="tspan9273"
           y="756.69336"
           x="159.06798 167.82048 172.81548 175.94298 181.56798 187.19298">method</tspan>
        <tspan
           id="tspan9275"
           y="744.19458"
           x="218.69298 226.19673 231.19173 236.81673 242.44173 248.06673 256.81924">Random</tspan>
        <tspan
           id="tspan9277"
           y="756.69336"
           x="218.69298 223.06923 228.06422 231.19173 236.18674 241.18173 244.30923 247.43674 253.06174">selection</tspan>
        <tspan
           id="tspan9279"
           y="744.19458"
           x="296.10422 303.60797 308.603 314.228 319.853 325.478 334.23047">Random</tspan>
        <tspan
           id="tspan9281"
           y="756.69336"
           x="296.10422 300.48047 305.47549 308.603 313.59799 318.59299 321.72049 324.84799 330.47299">selection</tspan>
        <tspan
           id="tspan9283"
           y="744.19458"
           x="377.16049 384.66422 389.65921 395.28421 400.90921 406.53421 415.28671">Random</tspan>
        <tspan
           id="tspan9285"
           y="756.69336"
           x="377.16049 381.53671 386.53174 389.65921 394.65424 399.64923 402.77673 405.90424 411.52924 417.15424 419.96674 426.31174">selection +</tspan>
        <tspan
           id="tspan9287"
           y="769.19214"
           x="377.16049 381.53671 386.53174 389.65921 393.40549 397.15173 401.52798 406.52298 409.65048 414.64548 419.64047 422.76797 425.89548 431.52048">self-selection</tspan>
        <tspan
           id="tspan9289"
           y="744.19458"
           x="454.06549 461.56921 466.56424 472.18924 477.81424 483.43924 492.19171">Random</tspan>
        <tspan
           id="tspan9291"
           y="756.69336"
           x="454.06549 458.44171 463.43674 466.56424 471.55923 476.55423 479.68173 482.80923 488.43423">selection</tspan>
        <tspan
           id="tspan9293"
           y="744.19458"
           x="538.86798 546.37177 551.36676 556.99176 562.61676 568.24176 576.9942 579.8067 584.18298 589.17798 592.30548 597.30048 602.29547 605.42297 608.55048 614.17548 619.80048">Random selection</tspan>
        <tspan
           id="tspan9295"
           y="756.69336"
           x="538.86798 545.21301 548.02551 552.40173 557.39673 560.52423 564.27051 568.01672 572.39294 577.388 580.5155 585.5105 590.50549 593.633 596.7605 602.3855">+ self-selection</tspan>
        <tspan
           id="tspan9297"
           y="787.94586"
           x="159.06798 167.19048 172.18549 175.31299 178.44048 184.06548 187.19298 190.32048 193.44798 198.44298 218.69298 222.43922 228.06422 231.81049 237.43549 241.18173 249.93423 254.92923 258.05673 261.18423 266.80923 272.43423 275.24673 281.59174">ActivitiesInformation +</tspan>
        <tspan
           id="tspan9299"
           y="800.44458"
           x="218.69298 226.81548 231.81049 234.93797 238.06548 243.69048 248.68549 252.43173 257.42673 260.55423 263.68173 269.30673">Deliberation</tspan>
        <tspan
           id="tspan9301"
           y="787.94586"
           x="296.10422 299.85049 305.47549 309.22174 314.84674 318.59299 327.34549 332.34048 335.46799 338.59549 344.22049 349.84549 352.65799 359.00299">Information +</tspan>
        <tspan
           id="tspan9303"
           y="800.44458"
           x="296.10422 304.22675 309.22174 312.34924 315.47675 321.10175 326.09674 329.84299 334.83798 337.96548 341.09299 346.71799">Deliberation</tspan>
        <tspan
           id="tspan9305"
           y="787.94586"
           x="377.16049 380.90674 386.53174 390.27798 395.90298 399.64923 408.40173 413.39673 416.52423 419.65173 425.27673 430.90173 433.71423 440.05923">Information +</tspan>
        <tspan
           id="tspan9307"
           y="800.44458"
           x="377.16049 385.28299 390.27798 393.40549 396.53299 402.15799 407.15298 410.89923 415.89423 419.02173 422.14923 427.77423">Deliberation</tspan>
        <tspan
           id="tspan9309"
           y="787.94586"
           x="454.06549 457.81174 463.43674 467.18298 472.80798 476.55423 485.30673 490.30173 493.42923 496.55673 502.18173 507.80673 510.61923 516.96423">Information +</tspan>
        <tspan
           id="tspan9311"
           y="800.44458"
           x="454.06549 462.18799 467.18298 470.31049 473.43799 479.06299 484.05798 487.80423 492.79922 495.92673 499.05423 504.67923">Deliberation</tspan>
        <tspan
           id="tspan9313"
           y="787.94586"
           x="538.86798 542.6142 548.2392 551.98547 557.61047 561.35675 570.10925 575.10425 578.23175 581.35925 586.98425 592.60925">Information</tspan>
        <tspan
           id="tspan9315"
           y="800.44458"
           x="538.86798 545.21301 548.02551 555.52924 561.15424 566.77924 571.15546 576.78046 579.90796 583.03546 588.03046 591.15796 594.28546 599.91046 605.53546">+ Consultation</tspan>
        <tspan
           id="tspan9317"
           y="812.94336"
           x="538.86798 545.21301">+</tspan>
        <tspan
           id="tspan9319"
           y="825.44214"
           x="538.86798 546.99048 551.98547 555.11298 558.24048 563.86548 568.86047 572.60675 577.60175 580.72925 583.85675 589.48175">Deliberation</tspan>
        <tspan
           id="tspan9321"
           y="881.69214"
           x="159.06798 166.57173 171.56673 175.94298 181.56798 184.69548">Result</tspan>
        <tspan
           id="tspan9323"
           y="869.19336"
           x="218.69298 226.19673 231.82173 234.94923 238.07674 243.07173 248.06673 251.19423 254.32173 259.94672 264.94174">Collective</tspan>
        <tspan
           id="tspan9325"
           y="881.69214"
           x="218.69298 224.31798 229.94298 234.31923 237.44673 240.57423 243.70174 249.32674 254.95174 257.76422 261.51047 266.50549 272.13049 277.75549 281.50174">position report</tspan>
        <tspan
           id="tspan9327"
           y="844.19586"
           x="296.10422 302.35922 307.98422 311.73047 317.35547 322.35049 327.97549 330.78799 336.41299 342.03799 345.1655 350.7905 353.91797 359.54297 365.16797 369.54422">Survey opinions</tspan>
        <tspan
           id="tspan9329"
           y="856.69458"
           x="296.10422 302.44922">+</tspan>
        <tspan
           id="tspan9331"
           y="869.19336"
           x="296.10422 303.60797 309.23297 312.36047 315.48798 320.48297 325.478 328.60547 331.73297 337.35797 342.353">Collective</tspan>
        <tspan
           id="tspan9333"
           y="881.69214"
           x="296.10422 301.72922 307.35422 311.73047 314.85797 317.98547 321.11298 326.73798 332.36298 335.17548 338.92172 343.91672 349.54172 355.16672 358.91299">position report</tspan>
        <tspan
           id="tspan9335"
           y="869.19336"
           x="377.16049 384.66422 390.28922 393.41675 396.54425 401.53922 406.53421 409.66171 412.78922 418.41422 423.40921">Collective</tspan>
        <tspan
           id="tspan9337"
           y="881.69214"
           x="377.16049 382.78549 388.41049 392.78671 395.91422 399.04175 402.16925 407.79425 413.41925 416.23175 419.97797 424.97299 430.59799 436.22299 439.96924 454.06549 460.3205 465.9455 469.69171 475.31671 480.31174 485.93674 488.74924 494.37424 499.99924 503.12674 508.75174 511.87921 517.50421 523.12921">position reportSurvey opinions</tspan>
        <tspan
           id="tspan9339"
           y="869.19336"
           x="538.86798 546.99048 551.98547 555.11298 560.10797 563.23547 566.36298 571.35797 576.98297">Detailed</tspan>
        <tspan
           id="tspan9341"
           y="881.69214"
           x="538.86798 542.6142 547.60925 552.60425 558.22925 566.98175 575.73425 580.72925 586.35425 591.97925 596.97424 600.10175 603.22925 608.85425 614.47925">recommendations</tspan>
      </text>
      <text
         id="text9343"
         style="font-style:italic;font-variant:normal;font-weight:normal;font-stretch:normal;font-size:11.25px;font-family:'Times New Roman';-inkscape-font-specification:TimesNewRomanPS-ItalicMT;writing-mode:lr-tb;fill:#231f20;fill-opacity:1;fill-rule:nonzero;stroke:none"
         x="159.06798"
         y="903.56207">
        <tspan
           id="tspan9345"
           y="903.56207"
           x="159.06798 164.69298 170.31798 175.94298 179.90298 184.89798 189.89297 193.63924">Source:</tspan>
      </text>
      <text
         id="text9347"
         style="font-variant:normal;font-weight:normal;font-stretch:normal;font-size:11.25px;font-family:'Times New Roman';-inkscape-font-specification:TimesNewRomanPSMT;writing-mode:lr-tb;fill:#231f20;fill-opacity:1;fill-rule:nonzero;stroke:none"
         x="196.45174"
         y="903.56207">
        <tspan
           id="tspan9349"
           y="903.56207"
           x="196.45174 204.57423 210.19923 215.19423 220.81923 223.94673 228.94173 234.56673 237.37923 241.12547 244.87173 250.49673 259.24924 262.06174 268.93549 272.06299 276.43924 279.56671 285.19171 290.81671 293.62921 297.37549 303.00049 308.62549 314.25049 319.87549 323.62173">Adapted from Elstub (2014).</tspan>
      </text>
      <text
         style="font-variant:normal;font-weight:normal;font-size:7.5px;font-family:Helvetica;-inkscape-font-specification:Helvetica;writing-mode:lr-tb;fill:#000000;fill-opacity:1;fill-rule:nonzero;stroke:none"
         id="text9351"
         x="158.11934"
         y="920.28021">
        <tspan
           x="158.11934 163.53435 167.70435 171.87434 176.04434 180.21434 184.38432 188.55434 192.30434 194.38934 198.55934 200.64433 202.72934 208.14433 212.31433 218.56183 222.73183 226.48183 228.97934 233.14934 235.23434 236.89934 240.64934 242.73434 244.81934 248.98933 253.15933 257.32935 261.07935 265.24936 267.33435 268.99936 273.16934 277.33936 279.42435 283.59433 287.76434 291.93436 294.01935 299.85434 304.02435 307.77435 311.94434 314.44183 318.61185 322.78183 326.95184 330.70184 334.87183 336.95685 339.04184 343.21185 347.38184 349.04684 351.13184 355.30185 359.47183 361.55682 365.72684 369.47684 371.56183 376.56433 378.64932 380.73434 385.73682 387.40182 391.15182 393.23682 397.40683 401.57684 403.66183 405.74686 409.91684 414.08685 418.25684 420.34183 426.17685 428.26184 430.34683 435.34933 439.09933 442.84933 447.01932 451.18933 455.35934 457.85684 459.94183 462.02686 467.02936 471.19934 476.61435 480.78433 483.28183 487.45184 489.53683 494.53931 496.20432 500.37433 504.54434 507.04184 509.12683 514.12939 518.29938 522.46936 524.13434 525.79938 529.54938 533.71936 535.38434 539.55438 543.72437 545.80939 549.97937 551.64435 557.89185 559.55682 561.64185 565.81183 569.98181 572.06683 574.15179 578.32184 582.49182 586.66187 590.83185"
           y="920.28021"
           id="tspan9353">Handbook of Democratic Innovation and Governance, edited by S. Elstub, and O. Escobar, Edward Elgar Publishing Limited, 2019.</tspan>
        <tspan
           x="184.79684 201.88184 248.98933 259.41434 299.85434"
           id="tspan9357" />
      </text>
    </g>
  </g>
</svg>
