<?xml version="1.0" encoding="UTF-8" standalone="no"?>
<!-- Created with Inkscape (http://www.inkscape.org/) -->

<svg
   xmlns:dc="http://purl.org/dc/elements/1.1/"
   xmlns:cc="http://creativecommons.org/ns#"
   xmlns:rdf="http://www.w3.org/1999/02/22-rdf-syntax-ns#"
   xmlns:svg="http://www.w3.org/2000/svg"
   xmlns="http://www.w3.org/2000/svg"
   xmlns:sodipodi="http://sodipodi.sourceforge.net/DTD/sodipodi-0.dtd"
   xmlns:inkscape="http://www.inkscape.org/namespaces/inkscape"
   width="52.231544mm"
   height="28.94228mm"
   viewBox="0 0 185.0724 102.55138"
   id="svg13098"
   version="1.1"
   inkscape:version="0.91 r13725"
   sodipodi:docname="drawing.svg">
  <defs
     id="defs13100" />
  <sodipodi:namedview
     id="base"
     pagecolor="#ffffff"
     bordercolor="#666666"
     borderopacity="1.0"
     inkscape:pageopacity="0.0"
     inkscape:pageshadow="2"
     inkscape:zoom="5.4587152"
     inkscape:cx="83.614937"
     inkscape:cy="40.54826"
     inkscape:document-units="px"
     inkscape:current-layer="layer1"
     showgrid="false"
     fit-margin-top="2"
     fit-margin-left="2"
     fit-margin-right="2"
     fit-margin-bottom="2"
     inkscape:window-width="2048"
     inkscape:window-height="1128"
     inkscape:window-x="0"
     inkscape:window-y="24"
     inkscape:window-maximized="1" />
  <metadata
     id="metadata13103">
    <rdf:RDF>
      <cc:Work
         rdf:about="">
        <dc:format>image/svg+xml</dc:format>
        <dc:type
           rdf:resource="http://purl.org/dc/dcmitype/StillImage" />
        <dc:title />
      </cc:Work>
    </rdf:RDF>
  </metadata>
  <g
     inkscape:label="Layer 1"
     inkscape:groupmode="layer"
     id="layer1"
     transform="translate(-144.03862,-389.75403)">
    <g
       id="g8097">
      <path
         sodipodi:nodetypes="ccscc"
         inkscape:connector-curvature="0"
         id="path8271-2"
         d="m 323.49118,473.30378 -157.24709,0 c 0,0 -15.8641,-7.71822 -14.53652,-14.83194 10.85866,-58.18554 88.96202,-59.96256 169.59455,-61.13005 l 0,-0.36173"
         style="fill:#ffffff;fill-opacity:1;fill-rule:evenodd;stroke:none;stroke-width:1.00426984px;stroke-linecap:butt;stroke-linejoin:miter;stroke-opacity:1" />
      <path
         inkscape:connector-curvature="0"
         id="path8254"
         d="m 181.74337,473.15385 a 8.8941898,8.8941898 0 0 0 1.66211,8.46679 8.8941898,8.8941898 0 0 0 12.5332,1.0625 l -5.73437,-6.79883 5.73633,6.79688 a 8.8941898,8.8941898 0 0 0 2.72265,-9.52734 l -16.91992,0 z"
         style="opacity:1;fill:#000000;fill-opacity:1;stroke:none;stroke-width:0.5;stroke-linejoin:miter;stroke-miterlimit:4;stroke-dasharray:none;stroke-dashoffset:0;stroke-opacity:1" />
      <path
         sodipodi:nodetypes="ccscc"
         inkscape:connector-curvature="0"
         id="path8271"
         d="m 322.02441,473.30498 -155.90787,0 c 0,0 -15.72899,-7.71846 -14.41272,-14.83241 C 162.47,400.28519 239.90818,398.50812 319.854,397.34059 l 0,-0.36174"
         style="fill:none;fill-rule:evenodd;stroke:#000000;stroke-width:1px;stroke-linecap:butt;stroke-linejoin:miter;stroke-opacity:1" />
      <path
         id="path8254-2"
         d="m 200.52236,473.15385 a 8.8941898,8.8941898 0 0 0 1.66211,8.46679 8.8941898,8.8941898 0 0 0 12.5332,1.0625 l -5.73437,-6.79883 5.73633,6.79688 a 8.8941898,8.8941898 0 0 0 2.72265,-9.52734 l -16.91992,0 z"
         style="opacity:1;fill:#000000;fill-opacity:1;stroke:none;stroke-width:0.5;stroke-linejoin:miter;stroke-miterlimit:4;stroke-dasharray:none;stroke-dashoffset:0;stroke-opacity:1"
         inkscape:connector-curvature="0" />
      <path
         inkscape:connector-curvature="0"
         id="path8254-5"
         d="m 284.09882,473.5933 a 8.8941898,8.8941898 0 0 0 1.66211,8.46679 8.8941898,8.8941898 0 0 0 12.5332,1.0625 l -5.73437,-6.79883 5.73633,6.79688 a 8.8941898,8.8941898 0 0 0 2.72265,-9.52734 l -16.91992,0 z"
         style="opacity:1;fill:#000000;fill-opacity:1;stroke:none;stroke-width:0.5;stroke-linejoin:miter;stroke-miterlimit:4;stroke-dasharray:none;stroke-dashoffset:0;stroke-opacity:1" />
      <path
         id="path8254-2-4"
         d="m 302.87781,473.5933 a 8.8941898,8.8941898 0 0 0 1.66211,8.46679 8.8941898,8.8941898 0 0 0 12.5332,1.0625 l -5.73437,-6.79883 5.73633,6.79688 a 8.8941898,8.8941898 0 0 0 2.72265,-9.52734 l -16.91992,0 z"
         style="opacity:1;fill:#000000;fill-opacity:1;stroke:none;stroke-width:0.5;stroke-linejoin:miter;stroke-miterlimit:4;stroke-dasharray:none;stroke-dashoffset:0;stroke-opacity:1"
         inkscape:connector-curvature="0" />
      <rect
         ry="3.7982197"
         y="415.92151"
         x="205.97707"
         height="24.236258"
         width="54.680313"
         id="rect8381-0"
         style="opacity:1;fill:#000000;fill-opacity:1;stroke:none;stroke-width:0.5;stroke-linejoin:miter;stroke-miterlimit:4;stroke-dasharray:none;stroke-dashoffset:0;stroke-opacity:1" />
      <path
         sodipodi:nodetypes="cssssssc"
         inkscape:connector-curvature="0"
         id="rect8381-0-5"
         d="m 190.5639,415.92152 5.75751,0 c 2.10421,0 3.79822,1.69401 3.79822,3.79822 l 0,16.63982 c 0,2.10421 -1.69401,3.79822 -3.79822,3.79822 l -27.49187,0 c -2.10422,0 -4.73629,-1.75088 -4.25039,-3.79822 1.34186,-5.65391 21.33992,-20.15533 25.98475,-20.43804 z"
         style="opacity:1;fill:#000000;fill-opacity:1;stroke:none;stroke-width:0.5;stroke-linejoin:miter;stroke-miterlimit:4;stroke-dasharray:none;stroke-dashoffset:0;stroke-opacity:1" />
      <rect
         ry="3.7982197"
         y="415.92151"
         x="266.51486"
         height="24.236258"
         width="54.680313"
         id="rect8381-0-9"
         style="opacity:1;fill:#000000;fill-opacity:1;stroke:none;stroke-width:0.5;stroke-linejoin:miter;stroke-miterlimit:4;stroke-dasharray:none;stroke-dashoffset:0;stroke-opacity:1" />
    </g>
  </g>
</svg>
